HIERARCHY
ROOT hip
{
  OFFSET 0 0 0
  CHANNELS 6 Xposition Yposition Zposition Yrotation Xrotation Zrotation
  JOINT chest
  {
    OFFSET 0 0 0
    CHANNELS 6 Xposition Yposition Zposition Yrotation Xrotation Zrotation
    JOINT head
    {
      OFFSET 0 0 0
      CHANNELS 6 Xposition Yposition Zposition Yrotation Xrotation Zrotation
      EndSite
      {
        OFFSET 0 0 0
      }
    }

    JOINT lHand
    {
      OFFSET 0 0 0
      CHANNELS 6 Xposition Yposition Zposition Yrotation Xrotation Zrotation
      EndSite
      {
        OFFSET 0 0 0
      }
    }



    JOINT rHand
    {
      OFFSET 0 0 0
      CHANNELS 6 Xposition Yposition Zposition Yrotation Xrotation Zrotation
      EndSite
      {
        OFFSET 0 0 0
      }
    }



  }


  JOINT lFoot
  {
    OFFSET 0 0 0
    CHANNELS 6 Xposition Yposition Zposition Yrotation Xrotation Zrotation
    EndSite
    {
      OFFSET 0 0 0
    }
  }


  JOINT rFoot
  {
    OFFSET 0 0 0
    CHANNELS 6 Xposition Yposition Zposition Yrotation Xrotation Zrotation
    EndSite
    {
      OFFSET 0 0 0
    }
  }


}

MOTION
Frames: 10
Frame Time: 0.1
-10.758830 108.455900 54.390230 -11.930690 1.195414 -353.628800 -6.291514 113.099900 39.945410 -359.630200 358.634700 -332.807200 -3.455484 147.092200 50.814650 -0.000007 14.153730 -345.035800 28.042330 118.032500 57.194780 -135.963800 291.536200 -322.864700 -33.831070 121.874200 42.507830 -265.139000 328.147100 -51.299440 12.007570 49.054630 14.098160 -268.506300 87.466260 -280.960800 -28.439190 45.113130 44.028200 -122.077400 68.988110 -115.059600 
-10.477020 108.164700 54.828780 -11.600070 0.124441 -352.692800 -6.190700 112.922400 40.298320 -359.274400 358.486700 -333.357900 -3.498193 147.025500 51.242060 -359.565200 16.091380 -345.339600 27.863120 118.098300 58.724930 -131.658000 294.105800 -326.820400 -33.195600 121.180200 44.690730 -265.072300 328.247300 -50.056630 12.187780 49.659740 14.529560 -238.456300 87.988800 -250.933100 -28.437060 44.852830 43.960560 -127.195700 69.533470 -119.620700 
-9.895734 107.808600 55.217000 -11.127970 358.694800 -352.070800 -5.988304 112.802500 40.728960 -358.823800 358.308100 -334.426700 -3.509197 146.844500 51.794020 -359.031700 18.546170 -345.894000 27.687790 117.964900 60.681160 -127.185600 297.488600 -330.840200 -32.397110 120.293600 47.433290 -265.020800 328.318800 -48.433180 12.497030 49.902720 15.342760 -205.750600 88.116430 -218.242200 -28.458930 44.581270 43.857120 -133.461600 70.132510 -125.208200 
-9.059042 107.386500 55.561360 -10.533300 356.960700 -351.734300 -5.699615 112.733700 41.223270 -358.290800 358.112700 -335.939100 -3.492635 146.566100 52.449200 -358.434400 21.443590 -346.657800 27.517310 117.660000 62.989900 -122.981100 301.631700 -334.497400 -31.464160 119.247500 50.637410 -264.983400 328.364800 -46.490700 12.915470 49.829850 16.479880 -176.178300 87.953300 -188.678000 -28.501410 44.302270 43.723530 -140.858000 70.655130 -131.826100 
-8.011012 106.897200 55.868320 -9.830717 354.978300 -351.656600 -5.339914 112.709200 41.767210 -357.688500 357.914500 -337.820400 -3.452647 146.206800 53.186270 -357.808800 24.704210 -347.593300 27.352660 117.211300 65.577630 -119.239200 306.437000 -337.605300 -30.425320 118.075400 54.205040 -264.959000 328.388500 -44.291710 13.423240 49.487390 17.883010 -151.972400 87.587680 -164.474700 -28.561100 44.019630 43.565470 -149.232800 70.971880 -139.343300 
-6.795720 106.339700 56.144340 -9.032832 352.805300 -351.810800 -4.924490 112.722400 42.346740 -357.031500 357.726400 -339.994100 -3.393371 145.783800 53.983920 -357.190100 28.241900 -348.665800 27.194820 116.646600 68.370800 -116.000000 311.768900 -340.132700 -29.309150 116.810400 58.038110 -264.946700 328.393400 -41.900120 14.000470 48.921650 19.494250 -132.829900 87.060420 -145.329900 -28.634620 43.737190 43.388590 -158.249600 70.973100 -147.444900 
-5.457235 105.712700 56.395900 -8.152235 350.501000 -352.169000 -4.468626 112.766600 42.947820 -356.335800 357.559700 -342.381800 -3.318946 145.313600 54.820800 -356.611000 31.963550 -349.844500 27.044750 115.993600 71.295880 -113.227900 317.463900 -342.125700 -28.144220 115.485800 62.038540 -264.945800 328.383100 -39.381260 14.627300 48.178870 21.255710 -117.924700 86.393970 -130.418500 -28.718570 43.458760 43.198550 -167.415300 70.593100 -155.659300 
-4.039623 105.015100 56.629480 -7.203363 348.125400 -352.701100 -3.987604 112.835100 43.556420 -355.619600 357.422800 -344.903400 -3.233511 144.813200 55.675610 -356.100900 35.770220 -351.101000 26.903440 115.280100 74.279360 -110.861600 323.340800 -343.659000 -26.959080 114.134900 66.108310 -264.955100 328.361200 -36.801670 15.283870 47.305350 23.109500 -106.415700 85.614340 -118.900300 -28.809580 43.188140 43.001020 -176.198700 69.826600 -163.477400 
-2.586965 104.245800 56.851510 -6.204248 345.738800 -353.373600 -3.496712 112.921100 44.158460 -354.901900 357.320800 -347.476900 -3.141205 144.299200 56.526980 -355.684400 39.559240 -352.408800 26.771850 114.533800 77.247630 -108.839100 329.210800 -344.810700 -25.782300 112.791000 70.149260 -264.973200 328.331300 -34.228680 15.950310 46.347350 24.997700 -97.553610 84.754540 -110.026500 -28.904240 42.929160 42.801650 -184.176000 68.726990 -170.497500 
-1.143329 103.403500 57.068470 -5.178032 343.400500 -354.148400 -3.011236 113.018100 44.739920 -354.202700 357.255300 -350.019900 -3.046169 143.788500 57.353610 -355.379600 43.227140 -353.741000 26.650980 113.782300 80.127180 -107.109100 334.888000 -345.652700 -24.642460 111.487300 74.063380 -264.998200 328.296700 -31.729710 16.606770 45.351170 26.862420 -90.730480 83.852320 -103.190500 -28.999170 42.685630 42.606090 -191.108200 67.388450 -176.503100 
